<svg width="24" height="24" viewBox="0 0 24 24" fill="none" xmlns="http://www.w3.org/2000/svg">
<path d="M7.46958 13.8025H22.0514C23.0257 13.8025 23.8376 12.9906 23.8376 12.0162C23.8376 11.0419 23.0257 10.23 22.0514 10.23H7.46958C6.49524 10.23 5.68333 11.0419 5.68333 12.0162C5.68356 12.9906 6.46282 13.8025 7.46958 13.8025Z" fill="white"/>
<path d="M13.77 24H22.0189C22.9932 24 23.8051 23.1881 23.8051 22.2137C23.8051 21.2394 22.9932 20.4275 22.0189 20.4275H13.77C12.7956 20.4275 11.9837 21.2394 11.9837 22.2137C11.9837 23.2204 12.7956 24 13.77 24Z" fill="white"/>
<path d="M1.78625 3.57249H22.0514C23.0257 3.57249 23.8376 2.76059 23.8376 1.78625C23.8376 0.811904 23.0257 0 22.0514 0L1.78625 0.000226536C0.811904 0.000226536 0 0.812131 0 1.78647C0.000226521 2.76058 0.779486 3.57249 1.78625 3.57249V3.57249Z" fill="white"/>
</svg>
